<svg width="421" height="433" viewBox="0 0 421 433" fill="none" xmlns="http://www.w3.org/2000/svg">
<mask id="mask0" mask-type="alpha" maskUnits="userSpaceOnUse" x="0" y="0" width="421" height="433">
<path fill-rule="evenodd" clip-rule="evenodd" d="M0 0H421V433H0L0 0Z" fill="white"/>
</mask>
<g mask="url(#mask0)">
<path d="M295.014 81.5132C315.91 81.5132 332.848 64.5842 332.848 43.7009C332.848 22.8177 315.91 5.88861 295.014 5.88861C274.118 5.88861 257.18 22.8177 257.18 43.7009C257.18 64.5842 274.118 81.5132 295.014 81.5132Z" fill="#C30069"/>
<path d="M204.926 176.234C213.136 176.234 219.79 169.583 219.79 161.379C219.79 153.174 213.136 146.524 204.926 146.524C196.717 146.524 190.062 153.174 190.062 161.379C190.062 169.583 196.717 176.234 204.926 176.234Z" fill="#F0B0B2"/>
<path d="M398.039 199.926C394.809 199.923 391.616 200.606 388.669 201.928C385.723 203.252 383.091 205.185 380.948 207.6C378.954 209.809 376.515 211.573 373.792 212.774C371.068 213.975 368.12 214.587 365.143 214.571H330.15C288.767 219.418 240.138 212.177 218.739 174.46C184.606 114.301 145.187 135.845 145.187 135.845C143.628 137.032 141.692 137.615 139.736 137.486C137.781 137.358 135.937 136.527 134.546 135.146L106.601 107.217C102.503 103.126 100.567 97.4509 100.911 91.6833C101.117 88.2309 100.536 84.7768 99.2104 81.582C97.8851 78.3872 95.8505 75.5352 93.2604 73.2417C84.3978 65.3536 70.6614 65.6646 62.1424 73.9241C58.7895 77.1722 56.5111 81.3677 55.6132 85.9473C54.7153 90.5269 55.2408 95.2716 57.1192 99.5441C58.9976 103.817 62.1389 107.412 66.1215 109.849C70.1041 112.285 74.7371 113.446 79.3988 113.174C82.3723 113.02 85.3449 113.496 88.1211 114.572C90.8974 115.647 93.4146 117.298 95.5073 119.414L122.899 146.786C124.273 148.156 125.108 149.975 125.25 151.911C125.393 153.846 124.834 155.767 123.675 157.324C121.049 160.799 118.635 164.428 116.445 168.193C115.447 169.884 113.867 171.152 112 171.764C110.133 172.375 108.107 172.286 106.302 171.512C104.291 170.686 102.481 169.438 100.993 167.852C99.5054 166.268 98.3749 164.383 97.6776 162.324C96.6126 159.002 94.5592 156.083 91.7913 153.956C89.0234 151.83 85.6727 150.598 82.1861 150.425C78.6994 150.251 75.2428 151.145 72.2772 152.986C69.3116 154.825 66.9782 157.526 65.5882 160.727C64.1981 163.928 63.8176 167.474 64.4974 170.897C65.1772 174.32 66.8849 177.453 69.3927 179.88C71.9006 182.307 75.0893 183.912 78.5335 184.48C81.9777 185.05 85.5136 184.556 88.6695 183.064C90.5718 182.13 92.6507 181.612 94.7688 181.541C96.8869 181.473 98.9955 181.853 100.955 182.66L101.416 182.858C103.238 183.646 104.709 185.073 105.551 186.871C106.392 188.669 106.546 190.713 105.982 192.616C104.569 197.516 103.505 202.51 102.798 207.56C102.534 209.502 101.577 211.282 100.103 212.573C98.6281 213.863 96.7362 214.578 94.7758 214.583H55.7572C49.7518 214.583 44.1425 211.89 40.1053 207.447C37.8102 204.911 34.974 202.924 31.8065 201.632C28.6389 200.34 25.2211 199.776 21.8062 199.983C9.9571 200.657 0.468119 210.586 0.282222 222.443C0.207563 227.11 1.56357 231.687 4.16811 235.562C6.77264 239.435 10.5009 242.419 14.8522 244.113C19.2034 245.807 23.9694 246.13 28.5096 245.038C33.0498 243.947 37.147 241.493 40.2506 238.005C42.244 235.795 44.6821 234.031 47.4051 232.829C50.1283 231.625 53.075 231.011 56.0522 231.026H94.7758C96.717 231.018 98.5957 231.712 100.066 232.979C101.536 234.246 102.499 236 102.778 237.92C103.397 242.364 104.292 246.766 105.457 251.099C105.945 252.869 105.765 254.757 104.952 256.404C104.139 258.051 102.75 259.342 101.048 260.033L100.911 260.106C96.6793 261.802 91.8742 261.794 87.7925 259.754C84.6061 258.159 81.0015 257.594 77.4791 258.138C73.9569 258.683 70.6918 260.312 68.1373 262.795C65.5828 265.279 63.8656 268.497 63.2245 272.001C62.5833 275.505 63.0497 279.121 64.5591 282.348C66.0022 285.446 68.3385 288.043 71.2683 289.804C74.198 291.566 77.5876 292.413 81.0022 292.236C84.4167 292.06 87.7008 290.868 90.4329 288.814C93.1648 286.758 95.2205 283.935 96.3358 280.704C96.973 278.766 98.0207 276.988 99.4079 275.49C100.795 273.994 102.489 272.812 104.374 272.029L105.15 271.719C106.994 270.988 109.043 270.956 110.909 271.632C112.774 272.306 114.328 273.639 115.277 275.381C117.747 279.843 120.526 284.127 123.594 288.2C124.782 289.76 125.365 291.694 125.237 293.648C125.108 295.604 124.277 297.446 122.895 298.835L95.5033 326.21C93.4106 328.328 90.8934 329.978 88.1171 331.053C85.3408 332.129 82.3683 332.605 79.3947 332.452C74.7326 332.18 70.099 333.341 66.1161 335.778C62.1334 338.214 58.992 341.811 57.114 346.084C55.2358 350.358 54.7109 355.103 55.6099 359.682C56.5088 364.262 58.7883 368.458 62.1424 371.706C70.6614 379.96 84.3978 380.272 93.2604 372.384C95.8527 370.088 97.8886 367.234 99.2141 364.036C100.539 360.838 101.12 357.381 100.911 353.926C100.571 348.154 102.507 342.48 106.601 338.388L134.542 310.46C135.914 309.086 137.734 308.252 139.67 308.11C141.605 307.968 143.528 308.526 145.086 309.683C148.563 312.307 152.194 314.721 155.961 316.909C157.653 317.907 158.923 319.486 159.534 321.352C160.146 323.218 160.057 325.242 159.283 327.047C157.558 331.086 154.269 334.317 150.094 335.649C146.766 336.711 143.843 338.76 141.713 341.527C139.582 344.292 138.346 347.64 138.17 351.126C137.994 354.612 138.885 358.068 140.727 361.034C142.568 363.999 145.27 366.333 148.472 367.723C151.674 369.115 155.226 369.495 158.651 368.817C162.076 368.138 165.212 366.431 167.642 363.924C170.071 361.417 171.678 358.229 172.246 354.786C172.814 351.342 172.319 347.807 170.825 344.653C169.892 342.753 169.373 340.674 169.303 338.559C169.234 336.442 169.614 334.337 170.421 332.379L170.618 331.914C171.407 330.092 172.835 328.621 174.635 327.78C176.433 326.94 178.478 326.787 180.383 327.349C185.286 328.763 190.282 329.826 195.336 330.532C197.277 330.795 199.058 331.752 200.35 333.225C201.641 334.698 202.357 336.587 202.364 338.545V377.558C202.364 383.559 199.668 389.165 195.218 393.2C192.682 395.494 190.695 398.33 189.403 401.496C188.11 404.661 187.548 408.076 187.754 411.489C188.441 423.331 198.375 432.814 210.24 432.996C214.909 433.069 219.489 431.713 223.364 429.11C227.24 426.506 230.226 422.78 231.921 418.431C233.615 414.082 233.938 409.32 232.847 404.782C231.755 400.245 229.299 396.15 225.811 393.047C223.599 391.053 221.833 388.612 220.632 385.887C219.431 383.161 218.82 380.213 218.839 377.234V338.549C218.831 336.609 219.525 334.732 220.792 333.262C222.061 331.792 223.817 330.83 225.738 330.553C230.055 329.947 234.33 329.081 238.54 327.96C240.448 327.469 242.468 327.691 244.223 328.584C245.977 329.476 247.345 330.977 248.07 332.806L248.378 333.574C249.112 335.476 249.428 337.514 249.303 339.549C249.178 341.585 248.615 343.569 247.654 345.367C246.055 348.47 245.442 351.985 245.896 355.443C246.348 358.903 247.844 362.142 250.186 364.729C252.529 367.316 255.605 369.128 259.003 369.923C262.403 370.717 265.964 370.458 269.21 369.177C272.458 367.897 275.237 365.657 277.179 362.759C279.119 359.859 280.13 356.436 280.075 352.949C280.02 349.46 278.901 346.072 276.869 343.235C274.837 340.399 271.988 338.247 268.701 337.071C264.405 335.536 261.083 332.067 259.386 327.835C258.694 326.092 258.665 324.157 259.302 322.395C259.941 320.632 261.203 319.164 262.849 318.266C267.438 315.76 271.84 312.925 276.02 309.785C277.58 308.598 279.517 308.015 281.474 308.143C283.429 308.271 285.273 309.103 286.665 310.483L314.291 338.057C318.534 342.298 320.596 348.154 320.305 354.165C320.08 358.787 321.264 363.368 323.701 367.304C326.136 371.24 329.71 374.345 333.948 376.208C338.186 378.072 342.89 378.606 347.44 377.741C351.988 376.877 356.169 374.654 359.426 371.365C362.684 368.076 364.867 363.879 365.688 359.324C366.508 354.769 365.926 350.072 364.02 345.855C362.113 341.638 358.971 338.097 355.009 335.702C351.047 333.307 346.451 332.169 341.828 332.439C338.855 332.594 335.881 332.116 333.105 331.041C330.327 329.965 327.809 328.316 325.716 326.199L298.328 298.827C296.955 297.457 296.12 295.637 295.977 293.702C295.835 291.768 296.393 289.847 297.552 288.29C300.176 284.815 302.59 281.185 304.779 277.421C305.777 275.729 307.358 274.459 309.225 273.848C311.092 273.237 313.12 273.326 314.925 274.101C318.967 275.825 322.2 279.117 323.534 283.285C324.603 286.606 326.659 289.523 329.43 291.645C332.199 293.767 335.552 294.996 339.037 295.165C342.523 295.335 345.98 294.437 348.942 292.595C351.906 290.751 354.237 288.048 355.623 284.848C357.01 281.646 357.387 278.098 356.704 274.678C356.021 271.257 354.311 268.125 351.802 265.699C349.292 263.275 346.104 261.673 342.66 261.106C339.215 260.539 335.68 261.036 332.526 262.529C328.404 264.476 323.599 264.375 319.403 262.581C317.685 261.839 316.297 260.495 315.504 258.8C314.711 257.105 314.568 255.179 315.099 253.385C316.57 248.356 317.674 243.226 318.401 238.037C318.667 236.099 319.624 234.323 321.097 233.035C322.57 231.746 324.458 231.033 326.415 231.026H365.45C371.455 231.026 377.064 233.719 381.098 238.167C383.658 240.985 386.884 243.121 390.479 244.379C394.075 245.636 397.928 245.977 401.689 245.37C405.449 244.762 408.999 243.227 412.015 240.901C415.031 238.576 417.42 235.534 418.962 232.052C420.504 228.572 421.152 224.76 420.847 220.965C420.542 217.17 419.294 213.51 417.217 210.319C415.139 207.128 412.296 204.507 408.946 202.692C405.598 200.878 401.849 199.926 398.039 199.926Z" fill="#F0B0B2"/>
<path d="M264.556 225.496C277.324 225.496 287.676 215.151 287.676 202.39C287.676 189.629 277.324 179.283 264.556 179.283C251.786 179.283 241.436 189.629 241.436 202.39C241.436 215.151 251.786 225.496 264.556 225.496Z" fill="#F0B0B2"/>
<path d="M305.809 185.139C320.387 185.139 332.203 173.33 332.203 158.762C332.203 144.193 320.387 132.384 305.809 132.384C291.233 132.384 279.416 144.193 279.416 158.762C279.416 173.33 291.233 185.139 305.809 185.139Z" fill="#C30069"/>
<path d="M179.59 162.106C192.508 162.106 202.982 151.64 202.982 138.728C202.982 125.818 192.508 115.351 179.59 115.351C166.671 115.351 156.199 125.818 156.199 138.728C156.199 151.64 166.671 162.106 179.59 162.106Z" fill="#F0B0B2"/>
<path d="M318.996 194.922C325.501 194.922 330.776 189.651 330.776 183.148C330.776 176.646 325.501 171.376 318.996 171.376C312.489 171.376 307.215 176.646 307.215 183.148C307.215 189.651 312.489 194.922 318.996 194.922Z" fill="#F0B0B2"/>
<path d="M380.597 34.6661L210.547 222.403" stroke="#BECBD3" stroke-width="9.49153" stroke-linecap="round"/>
<path d="M409.399 40.1606L372.66 6.90188C369.185 3.75564 363.814 4.02091 360.667 7.49437L359.147 9.17071C355.999 12.6442 356.265 18.0105 359.74 21.1567L396.48 54.4154C399.955 57.5617 405.324 57.2964 408.473 53.823L409.993 52.1466C413.14 48.6732 412.875 43.3069 409.399 40.1606Z" fill="#BECBD3"/>
<path d="M195.19 239.249L154.053 284.586" stroke="white" stroke-width="9.49153" stroke-linecap="round"/>
<path d="M220.399 244.823L186.915 214.512L175.951 226.608L209.436 256.919L220.399 244.823Z" fill="#94C5E3"/>
<path d="M225.181 256.984L174.35 210.973L303.094 68.294L353.93 114.305L225.181 256.984Z" fill="#BECBD3"/>
<path d="M235.924 155.81L186.941 209.853L225.065 244.365L274.046 190.321L235.924 155.81Z" fill="#003869"/>
<path d="M369.337 116.046L300.593 53.8156C295.961 49.6211 288.801 49.9747 284.605 54.6054L282.579 56.8416C278.382 61.4723 278.735 68.6266 283.369 72.8211L352.112 135.052C356.746 139.247 363.905 138.892 368.102 134.262L370.128 132.026C374.324 127.395 373.971 120.241 369.337 116.046Z" fill="#94C5E3"/>
<path d="M227.455 165.111L250.2 139.141C250.2 139.141 247.064 146.959 257.26 151.455C267.456 155.95 285.876 154.457 291.292 144.484C297.442 133.175 315.434 133.175 322.029 137.517C311.086 148.378 270.163 194.465 270.163 194.465" fill="#003869"/>
<path d="M276.65 142.585C283.013 142.585 288.171 137.43 288.171 131.071C288.171 124.711 283.013 119.556 276.65 119.556C270.286 119.556 265.127 124.711 265.127 131.071C265.127 137.43 270.286 142.585 276.65 142.585Z" fill="#003869"/>
<path d="M298.069 116.515C301.032 116.515 303.431 114.115 303.431 111.155C303.431 108.195 301.032 105.795 298.069 105.795C295.107 105.795 292.707 108.195 292.707 111.155C292.707 114.115 295.107 116.515 298.069 116.515Z" fill="#003869"/>
<path d="M287.619 201.324C287.619 201.324 286.075 215.408 302.369 215.864C313.927 216.175 275.176 218.287 275.176 218.287" fill="#F0B0B2"/>
<path d="M203.432 60.2768C211.186 60.2768 217.472 53.9948 217.472 46.2456C217.472 38.4963 211.186 32.2144 203.432 32.2144C195.679 32.2144 189.393 38.4963 189.393 46.2456C189.393 53.9948 195.679 60.2768 203.432 60.2768Z" fill="#C30069"/>
<path d="M274.338 21.7469C276.612 12.2792 270.777 2.76151 261.303 0.48853C251.83 -1.78446 242.307 4.04801 240.032 13.5157C237.758 22.9833 243.593 32.5011 253.067 34.774C262.54 37.047 272.063 31.2146 274.338 21.7469Z" fill="#F0B0B2"/>
<path d="M220.828 62.3799C221.993 57.7919 219.215 53.1287 214.624 51.9643C210.034 50.8 205.369 53.5753 204.203 58.1634C203.038 62.7514 205.815 67.4145 210.405 68.5788C214.996 69.7432 219.662 66.9677 220.828 62.3799Z" fill="#F0B0B2"/>
<path d="M222.921 112.137C228.757 112.137 233.489 107.408 233.489 101.575C233.489 95.7415 228.757 91.0129 222.921 91.0129C217.085 91.0129 212.354 95.7415 212.354 101.575C212.354 107.408 217.085 112.137 222.921 112.137Z" fill="#F0B0B2"/>
<path d="M152.738 78.1408C156.398 78.1408 159.366 75.1753 159.366 71.517C159.366 67.8587 156.398 64.8932 152.738 64.8932C149.078 64.8932 146.111 67.8587 146.111 71.517C146.111 75.1753 149.078 78.1408 152.738 78.1408Z" fill="#F0B0B2"/>
</g>
</svg>
